<svg width="295" height="217" viewBox="0 0 295 217" fill="none" xmlns="http://www.w3.org/2000/svg">
<g opacity="0.8">
<mask id="path-1-outside-1_150_342" maskUnits="userSpaceOnUse" x="-1" y="-1" width="297" height="219" fill="black">
<rect fill="white" x="-1" y="-1" width="297" height="219"/>
<path d="M22.8 186.7C8 167.1 0.6 140.9 0.6 108.1C0.6 75.3 8 49.2 22.8 29.8C37.6 10.4 60.2 0.699995 90.6 0.699995C121 0.699995 143.6 10.5 158.4 30.1C173.2 49.5 180.6 75.5 180.6 108.1C180.6 140.9 173.2 167.1 158.4 186.7C143.6 206.1 121 215.8 90.6 215.8C60.2 215.8 37.6 206.1 22.8 186.7ZM110.1 141.1C113.3 133.3 114.9 122.3 114.9 108.1C114.9 93.9 113.3 83 110.1 75.4C106.9 67.6 100.4 63.7 90.6 63.7C80.6 63.7 74 67.6 70.8 75.4C67.6 83 66 93.9 66 108.1C66 122.3 67.6 133.3 70.8 141.1C74 148.9 80.6 152.8 90.6 152.8C100.4 152.8 106.9 148.9 110.1 141.1ZM192.633 67V4.6H294.333V217H224.433V67H192.633Z"/>
</mask>
<path d="M22.8 186.7L22.002 187.303L22.0049 187.307L22.8 186.7ZM22.8 29.8L23.5951 30.4065L22.8 29.8ZM158.4 30.1L157.602 30.7026L157.605 30.7065L158.4 30.1ZM158.4 186.7L159.195 187.307L159.198 187.303L158.4 186.7ZM110.1 75.4L109.175 75.7796L109.178 75.788L110.1 75.4ZM70.8 75.4L71.7217 75.7881L71.7252 75.7795L70.8 75.4ZM23.598 186.097C8.96692 166.721 1.6 140.755 1.6 108.1H-0.4C-0.4 141.045 7.03308 167.479 22.002 187.303L23.598 186.097ZM1.6 108.1C1.6 75.4443 8.96719 49.5809 23.5951 30.4065L22.0049 29.1935C7.03281 48.8191 -0.4 75.1557 -0.4 108.1H1.6ZM23.5951 30.4065C38.1598 11.315 60.427 1.7 90.6 1.7V-0.300003C59.973 -0.300003 37.0403 9.48502 22.0049 29.1935L23.5951 30.4065ZM90.6 1.7C120.769 1.7 143.036 11.4123 157.602 30.7026L159.198 29.4974C144.164 9.58765 121.231 -0.300003 90.6 -0.300003V1.7ZM157.605 30.7065C172.234 49.8819 179.6 75.6459 179.6 108.1H181.6C181.6 75.354 174.166 49.1181 159.195 29.4935L157.605 30.7065ZM179.6 108.1C179.6 140.755 172.233 166.721 157.602 186.097L159.198 187.303C174.167 167.479 181.6 141.045 181.6 108.1H179.6ZM157.605 186.093C143.04 205.185 120.773 214.8 90.6 214.8V216.8C121.227 216.8 144.16 207.015 159.195 187.307L157.605 186.093ZM90.6 214.8C60.427 214.8 38.1598 205.185 23.5951 186.093L22.0049 187.307C37.0403 207.015 59.973 216.8 90.6 216.8V214.8ZM111.025 141.48C114.297 133.504 115.9 122.353 115.9 108.1H113.9C113.9 122.247 112.303 133.096 109.175 140.72L111.025 141.48ZM115.9 108.1C115.9 93.8491 114.298 82.7929 111.022 75.0119L109.178 75.788C112.302 83.207 113.9 93.9509 113.9 108.1H115.9ZM111.025 75.0204C109.353 70.9445 106.795 67.8408 103.34 65.7675C99.8948 63.7007 95.6292 62.7 90.6 62.7V64.7C95.3708 64.7 99.2552 65.6493 102.311 67.4825C105.355 69.3092 107.647 72.0554 109.175 75.7795L111.025 75.0204ZM90.6 62.7C85.4742 62.7 81.1355 63.6993 77.6413 65.7641C74.1349 67.836 71.5488 70.9401 69.8748 75.0204L71.7252 75.7795C73.2512 72.0598 75.5651 69.314 78.6587 67.4859C81.7645 65.6507 85.7258 64.7 90.6 64.7V62.7ZM69.8784 75.0119C66.6021 82.7929 65 93.8491 65 108.1H67C67 93.9509 68.5978 83.207 71.7216 75.788L69.8784 75.0119ZM65 108.1C65 122.353 66.6028 133.504 69.8748 141.48L71.7252 140.72C68.5972 133.096 67 122.247 67 108.1H65ZM69.8748 141.48C71.5488 145.56 74.1349 148.664 77.6413 150.736C81.1355 152.801 85.4742 153.8 90.6 153.8V151.8C85.7258 151.8 81.7645 150.849 78.6587 149.014C75.5651 147.186 73.2512 144.44 71.7252 140.72L69.8748 141.48ZM90.6 153.8C95.6292 153.8 99.8948 152.799 103.34 150.732C106.795 148.659 109.353 145.555 111.025 141.48L109.175 140.72C107.647 144.445 105.355 147.191 102.311 149.018C99.2552 150.851 95.3708 151.8 90.6 151.8V153.8ZM192.633 67H191.633V68H192.633V67ZM192.633 4.6V3.6H191.633V4.6H192.633ZM294.333 4.6H295.333V3.6H294.333V4.6ZM294.333 217V218H295.333V217H294.333ZM224.433 217H223.433V218H224.433V217ZM224.433 67H225.433V66H224.433V67ZM193.633 67V4.6H191.633V67H193.633ZM192.633 5.6H294.333V3.6H192.633V5.6ZM293.333 4.6V217H295.333V4.6H293.333ZM294.333 216H224.433V218H294.333V216ZM225.433 217V67H223.433V217H225.433ZM224.433 66H192.633V68H224.433V66Z" fill="#44A1E7" mask="url(#path-1-outside-1_150_342)"/>
</g>
</svg>
