<svg width="354" height="218" viewBox="0 0 354 218" fill="none" xmlns="http://www.w3.org/2000/svg">
<g opacity="0.8">
<mask id="path-1-outside-1_150_343" maskUnits="userSpaceOnUse" x="-1" y="-1" width="356" height="220" fill="black">
<rect fill="white" x="-1" y="-1" width="356" height="220"/>
<path d="M22.8 188.7C8 169.1 0.6 142.9 0.6 110.1C0.6 77.3 8 51.2 22.8 31.8C37.6 12.4 60.2 2.7 90.6 2.7C121 2.7 143.6 12.5 158.4 32.1C173.2 51.5 180.6 77.5 180.6 110.1C180.6 142.9 173.2 169.1 158.4 188.7C143.6 208.1 121 217.8 90.6 217.8C60.2 217.8 37.6 208.1 22.8 188.7ZM110.1 143.1C113.3 135.3 114.9 124.3 114.9 110.1C114.9 95.9 113.3 85 110.1 77.4C106.9 69.6 100.4 65.7 90.6 65.7C80.6 65.7 74 69.6 70.8 77.4C67.6 85 66 95.9 66 110.1C66 124.3 67.6 135.3 70.8 143.1C74 150.9 80.6 154.8 90.6 154.8C100.4 154.8 106.9 150.9 110.1 143.1ZM198.033 165.9C224.233 146.1 244.933 128.5 260.133 113.1C275.533 97.7 283.233 83.9 283.233 71.7C283.233 61.7 279.733 56.7 272.733 56.7C268.733 56.7 265.833 58.5 264.033 62.1C262.433 65.5 261.633 72 261.633 81.6H197.133C197.733 63 201.733 47.7 209.133 35.7C216.733 23.7 226.533 14.9 238.533 9.29998C250.533 3.69998 263.733 0.899983 278.133 0.899983C303.333 0.899983 321.733 7.09999 333.333 19.5C345.133 31.9 351.033 47.1 351.033 65.1C351.033 84.1 344.733 102 332.133 118.8C319.533 135.6 303.633 150.1 284.433 162.3H353.133V216H198.033V165.9Z"/>
</mask>
<path d="M22.8 188.7L22.002 189.303L22.0049 189.307L22.8 188.7ZM22.8 31.8L23.5951 32.4065L22.8 31.8ZM158.4 32.1L157.602 32.7026L157.605 32.7065L158.4 32.1ZM158.4 188.7L159.195 189.307L159.198 189.303L158.4 188.7ZM110.1 77.4L109.175 77.7796L109.178 77.788L110.1 77.4ZM70.8 77.4L71.7217 77.7881L71.7252 77.7795L70.8 77.4ZM23.598 188.097C8.96692 168.721 1.6 142.755 1.6 110.1H-0.4C-0.4 143.045 7.03308 169.479 22.002 189.303L23.598 188.097ZM1.6 110.1C1.6 77.4443 8.96719 51.5809 23.5951 32.4065L22.0049 31.1935C7.03281 50.8191 -0.4 77.1557 -0.4 110.1H1.6ZM23.5951 32.4065C38.1598 13.315 60.427 3.7 90.6 3.7V1.7C59.973 1.7 37.0403 11.485 22.0049 31.1935L23.5951 32.4065ZM90.6 3.7C120.769 3.7 143.036 13.4123 157.602 32.7026L159.198 31.4974C144.164 11.5876 121.231 1.7 90.6 1.7V3.7ZM157.605 32.7065C172.234 51.8819 179.6 77.6459 179.6 110.1H181.6C181.6 77.354 174.166 51.1181 159.195 31.4935L157.605 32.7065ZM179.6 110.1C179.6 142.755 172.233 168.721 157.602 188.097L159.198 189.303C174.167 169.479 181.6 143.045 181.6 110.1H179.6ZM157.605 188.093C143.04 207.185 120.773 216.8 90.6 216.8V218.8C121.227 218.8 144.16 209.015 159.195 189.307L157.605 188.093ZM90.6 216.8C60.427 216.8 38.1598 207.185 23.5951 188.093L22.0049 189.307C37.0403 209.015 59.973 218.8 90.6 218.8V216.8ZM111.025 143.48C114.297 135.504 115.9 124.353 115.9 110.1H113.9C113.9 124.247 112.303 135.096 109.175 142.72L111.025 143.48ZM115.9 110.1C115.9 95.8491 114.298 84.7929 111.022 77.0119L109.178 77.788C112.302 85.207 113.9 95.9509 113.9 110.1H115.9ZM111.025 77.0204C109.353 72.9445 106.795 69.8408 103.34 67.7675C99.8948 65.7007 95.6292 64.7 90.6 64.7V66.7C95.3708 66.7 99.2552 67.6493 102.311 69.4825C105.355 71.3092 107.647 74.0554 109.175 77.7795L111.025 77.0204ZM90.6 64.7C85.4742 64.7 81.1355 65.6993 77.6413 67.7641C74.1349 69.836 71.5488 72.9401 69.8748 77.0204L71.7252 77.7795C73.2512 74.0598 75.5651 71.314 78.6587 69.4859C81.7645 67.6507 85.7258 66.7 90.6 66.7V64.7ZM69.8784 77.0119C66.6021 84.7929 65 95.8491 65 110.1H67C67 95.9509 68.5978 85.207 71.7216 77.788L69.8784 77.0119ZM65 110.1C65 124.353 66.6028 135.504 69.8748 143.48L71.7252 142.72C68.5972 135.096 67 124.247 67 110.1H65ZM69.8748 143.48C71.5488 147.56 74.1349 150.664 77.6413 152.736C81.1355 154.801 85.4742 155.8 90.6 155.8V153.8C85.7258 153.8 81.7645 152.849 78.6587 151.014C75.5651 149.186 73.2512 146.44 71.7252 142.72L69.8748 143.48ZM90.6 155.8C95.6292 155.8 99.8948 154.799 103.34 152.732C106.795 150.659 109.353 147.555 111.025 143.48L109.175 142.72C107.647 146.445 105.355 149.191 102.311 151.018C99.2552 152.851 95.3708 153.8 90.6 153.8V155.8ZM198.033 165.9L197.43 165.102L197.033 165.402V165.9H198.033ZM260.133 113.1L259.426 112.393L259.421 112.398L260.133 113.1ZM264.033 62.1L263.138 61.6528L263.133 61.6634L263.128 61.6742L264.033 62.1ZM261.633 81.6V82.6H262.633V81.6H261.633ZM197.133 81.6L196.133 81.5677L196.1 82.6H197.133V81.6ZM209.133 35.7L208.288 35.1649L208.282 35.1751L209.133 35.7ZM238.533 9.29998L238.11 8.3938L238.533 9.29998ZM333.333 19.5L332.603 20.1832L332.608 20.1894L333.333 19.5ZM332.133 118.8L331.333 118.2L332.133 118.8ZM284.433 162.3L283.897 161.456L280.994 163.3H284.433V162.3ZM353.133 162.3H354.133V161.3H353.133V162.3ZM353.133 216V217H354.133V216H353.133ZM198.033 216H197.033V217H198.033V216ZM198.636 166.698C224.857 146.882 245.598 129.25 260.845 113.802L259.421 112.398C244.268 127.75 223.609 145.318 197.43 165.102L198.636 166.698ZM260.84 113.807C276.292 98.3546 284.233 84.3091 284.233 71.7H282.233C282.233 83.4909 274.773 97.0454 259.426 112.393L260.84 113.807ZM284.233 71.7C284.233 66.614 283.348 62.6212 281.427 59.8765C279.46 57.0668 276.504 55.7 272.733 55.7V57.7C275.962 57.7 278.255 58.8331 279.789 61.0235C281.367 63.2788 282.233 66.786 282.233 71.7H284.233ZM272.733 55.7C270.579 55.7 268.664 56.1862 267.03 57.2004C265.397 58.2143 264.106 59.7173 263.138 61.6528L264.927 62.5472C265.759 60.8827 266.819 59.6857 268.085 58.8996C269.351 58.1138 270.887 57.7 272.733 57.7V55.7ZM263.128 61.6742C262.261 63.5159 261.645 66.1135 261.24 69.4028C260.834 72.7073 260.633 76.7761 260.633 81.6H262.633C262.633 76.8239 262.832 72.8427 263.225 69.6471C263.62 66.4365 264.204 64.0841 264.938 62.5258L263.128 61.6742ZM261.633 80.6H197.133V82.6H261.633V80.6ZM198.132 81.6322C198.728 63.1525 202.7 48.0363 209.984 36.2249L208.282 35.1751C200.765 47.3637 196.737 62.8475 196.133 81.5677L198.132 81.6322ZM209.978 36.2351C217.483 24.3843 227.142 15.7194 238.956 10.2062L238.11 8.3938C225.924 14.0806 215.983 23.0157 208.288 35.1649L209.978 36.2351ZM238.956 10.2062C250.812 4.67321 263.866 1.89999 278.133 1.89999V-0.100014C263.6 -0.100014 250.254 2.72675 238.11 8.3938L238.956 10.2062ZM278.133 1.89999C303.19 1.89999 321.267 8.06599 332.603 20.1832L334.063 18.8168C322.198 6.13398 303.475 -0.100014 278.133 -0.100014V1.89999ZM332.608 20.1894C344.222 32.3931 350.033 47.342 350.033 65.1H352.033C352.033 46.858 346.044 31.4069 334.057 18.8106L332.608 20.1894ZM350.033 65.1C350.033 83.8608 343.817 101.554 331.333 118.2L332.933 119.4C345.648 102.446 352.033 84.3392 352.033 65.1H350.033ZM331.333 118.2C318.811 134.896 303.003 149.315 283.897 161.456L284.969 163.144C304.263 150.885 320.255 136.304 332.933 119.4L331.333 118.2ZM284.433 163.3H353.133V161.3H284.433V163.3ZM352.133 162.3V216H354.133V162.3H352.133ZM353.133 215H198.033V217H353.133V215ZM199.033 216V165.9H197.033V216H199.033Z" fill="#44A1E7" mask="url(#path-1-outside-1_150_343)"/>
</g>
</svg>
