<svg width="359" height="228" viewBox="0 0 359 228" fill="none" xmlns="http://www.w3.org/2000/svg">
<g opacity="0.8">
<mask id="path-1-outside-1_150_415" maskUnits="userSpaceOnUse" x="-1" y="-1" width="361" height="230" fill="black">
<rect fill="white" x="-1" y="-1" width="361" height="230"/>
<path d="M22.8 194.7C8 175.1 0.6 148.9 0.6 116.1C0.6 83.3 8 57.2 22.8 37.8C37.6 18.4 60.2 8.7 90.6 8.7C121 8.7 143.6 18.5 158.4 38.1C173.2 57.5 180.6 83.5 180.6 116.1C180.6 148.9 173.2 175.1 158.4 194.7C143.6 214.1 121 223.8 90.6 223.8C60.2 223.8 37.6 214.1 22.8 194.7ZM110.1 149.1C113.3 141.3 114.9 130.3 114.9 116.1C114.9 101.9 113.3 91 110.1 83.4C106.9 75.6 100.4 71.7 90.6 71.7C80.6 71.7 74 75.6 70.8 83.4C67.6 91 66 101.9 66 116.1C66 130.3 67.6 141.3 70.8 149.1C74 156.9 80.6 160.8 90.6 160.8C100.4 160.8 106.9 156.9 110.1 149.1ZM280.533 0.899988C296.333 0.899988 309.833 3.59999 321.033 8.99999C332.233 14.4 340.633 21.7 346.233 30.9C352.033 40.1 354.933 50.5 354.933 62.1C354.933 76.1 351.633 87.1 345.033 95.1C338.433 102.9 331.033 108.2 322.833 111V112.2C346.833 121.2 358.833 137.9 358.833 162.3C358.833 175.1 355.833 186.4 349.833 196.2C343.833 206 335.233 213.6 324.033 219C313.033 224.4 299.933 227.1 284.733 227.1C258.733 227.1 238.333 220.9 223.533 208.5C208.733 196.1 201.133 176.7 200.733 150.3H265.533C265.133 157.5 266.133 163 268.533 166.8C271.133 170.4 275.533 172.2 281.733 172.2C285.333 172.2 288.333 170.9 290.733 168.3C293.133 165.5 294.333 161.9 294.333 157.5C294.333 151.9 292.433 147.7 288.633 144.9C285.033 141.9 278.833 140.4 270.033 140.4H258.933V86.7H269.733C283.333 87.5 290.133 82.1 290.133 70.5C290.133 65.5 289.033 61.8 286.833 59.4C284.833 57 282.233 55.8 279.033 55.8C271.633 55.8 267.933 62 267.933 74.4H203.133C203.733 50.6 210.633 32.4 223.833 19.8C237.233 7.19999 256.133 0.899988 280.533 0.899988Z"/>
</mask>
<path d="M22.8 194.7L22.002 195.303L22.0049 195.307L22.8 194.7ZM22.8 37.8L23.5951 38.4065L22.8 37.8ZM158.4 38.1L157.602 38.7026L157.605 38.7065L158.4 38.1ZM158.4 194.7L159.195 195.307L159.198 195.303L158.4 194.7ZM110.1 83.4L109.175 83.7796L109.178 83.788L110.1 83.4ZM70.8 83.4L71.7217 83.7881L71.7252 83.7795L70.8 83.4ZM23.598 194.097C8.96692 174.721 1.6 148.755 1.6 116.1H-0.4C-0.4 149.045 7.03308 175.479 22.002 195.303L23.598 194.097ZM1.6 116.1C1.6 83.4443 8.96719 57.5809 23.5951 38.4065L22.0049 37.1935C7.03281 56.8191 -0.4 83.1557 -0.4 116.1H1.6ZM23.5951 38.4065C38.1598 19.315 60.427 9.7 90.6 9.7V7.7C59.973 7.7 37.0403 17.485 22.0049 37.1935L23.5951 38.4065ZM90.6 9.7C120.769 9.7 143.036 19.4123 157.602 38.7026L159.198 37.4974C144.164 17.5876 121.231 7.7 90.6 7.7V9.7ZM157.605 38.7065C172.234 57.8819 179.6 83.6459 179.6 116.1H181.6C181.6 83.354 174.166 57.1181 159.195 37.4935L157.605 38.7065ZM179.6 116.1C179.6 148.755 172.233 174.721 157.602 194.097L159.198 195.303C174.167 175.479 181.6 149.045 181.6 116.1H179.6ZM157.605 194.093C143.04 213.185 120.773 222.8 90.6 222.8V224.8C121.227 224.8 144.16 215.015 159.195 195.307L157.605 194.093ZM90.6 222.8C60.427 222.8 38.1598 213.185 23.5951 194.093L22.0049 195.307C37.0403 215.015 59.973 224.8 90.6 224.8V222.8ZM111.025 149.48C114.297 141.504 115.9 130.353 115.9 116.1H113.9C113.9 130.247 112.303 141.096 109.175 148.72L111.025 149.48ZM115.9 116.1C115.9 101.849 114.298 90.7929 111.022 83.0119L109.178 83.788C112.302 91.207 113.9 101.951 113.9 116.1H115.9ZM111.025 83.0204C109.353 78.9445 106.795 75.8408 103.34 73.7675C99.8948 71.7007 95.6292 70.7 90.6 70.7V72.7C95.3708 72.7 99.2552 73.6493 102.311 75.4825C105.355 77.3092 107.647 80.0554 109.175 83.7795L111.025 83.0204ZM90.6 70.7C85.4742 70.7 81.1355 71.6993 77.6413 73.7641C74.1349 75.836 71.5488 78.9401 69.8748 83.0204L71.7252 83.7795C73.2512 80.0598 75.5651 77.314 78.6587 75.4859C81.7645 73.6507 85.7258 72.7 90.6 72.7V70.7ZM69.8784 83.0119C66.6021 90.7929 65 101.849 65 116.1H67C67 101.951 68.5978 91.207 71.7216 83.788L69.8784 83.0119ZM65 116.1C65 130.353 66.6028 141.504 69.8748 149.48L71.7252 148.72C68.5972 141.096 67 130.247 67 116.1H65ZM69.8748 149.48C71.5488 153.56 74.1349 156.664 77.6413 158.736C81.1355 160.801 85.4742 161.8 90.6 161.8V159.8C85.7258 159.8 81.7645 158.849 78.6587 157.014C75.5651 155.186 73.2512 152.44 71.7252 148.72L69.8748 149.48ZM90.6 161.8C95.6292 161.8 99.8948 160.799 103.34 158.732C106.795 156.659 109.353 153.555 111.025 149.48L109.175 148.72C107.647 152.445 105.355 155.191 102.311 157.018C99.2552 158.851 95.3708 159.8 90.6 159.8V161.8ZM346.233 30.9L345.379 31.4199L345.383 31.4267L345.387 31.4333L346.233 30.9ZM345.033 95.1L345.796 95.746L345.804 95.7364L345.033 95.1ZM322.833 111L322.51 110.054L321.833 110.285V111H322.833ZM322.833 112.2H321.833V112.893L322.482 113.136L322.833 112.2ZM349.833 196.2L350.686 196.722L349.833 196.2ZM324.033 219L323.599 218.099L323.592 218.102L324.033 219ZM223.533 208.5L224.175 207.733L223.533 208.5ZM200.733 150.3V149.3H199.718L199.733 150.315L200.733 150.3ZM265.533 150.3L266.531 150.355L266.59 149.3H265.533V150.3ZM268.533 166.8L267.687 167.334L267.704 167.36L267.722 167.385L268.533 166.8ZM290.733 168.3L291.468 168.978L291.48 168.965L291.492 168.951L290.733 168.3ZM288.633 144.9L287.993 145.668L288.016 145.687L288.04 145.705L288.633 144.9ZM258.933 140.4H257.933V141.4H258.933V140.4ZM258.933 86.7V85.7H257.933V86.7H258.933ZM269.733 86.7L269.792 85.7017L269.762 85.7H269.733V86.7ZM286.833 59.4L286.065 60.0402L286.08 60.0583L286.096 60.0757L286.833 59.4ZM267.933 74.4V75.4H268.933V74.4H267.933ZM203.133 74.4L202.133 74.3748L202.107 75.4H203.133V74.4ZM223.833 19.8L223.148 19.0715L223.142 19.0766L223.833 19.8ZM280.533 1.89999C296.222 1.89999 309.566 4.58128 320.599 9.90076L321.467 8.09922C310.1 2.6187 296.444 -0.100014 280.533 -0.100014V1.89999ZM320.599 9.90076C331.652 15.2302 339.894 22.409 345.379 31.4199L347.087 30.3801C341.372 20.991 332.813 13.5698 321.467 8.09922L320.599 9.90076ZM345.387 31.4333C351.079 40.4629 353.933 50.6756 353.933 62.1H355.933C355.933 50.3244 352.986 39.7371 347.079 30.3667L345.387 31.4333ZM353.933 62.1C353.933 75.9491 350.669 86.6968 344.261 94.4636L345.804 95.7364C352.597 87.5032 355.933 76.2509 355.933 62.1H353.933ZM344.269 94.4541C337.765 102.141 330.51 107.322 322.51 110.054L323.156 111.946C331.556 109.078 339.1 103.659 345.796 95.7459L344.269 94.4541ZM321.833 111V112.2H323.833V111H321.833ZM322.482 113.136C334.342 117.584 343.162 123.905 349.021 132.059C354.877 140.209 357.833 150.269 357.833 162.3H359.833C359.833 149.931 356.789 139.441 350.645 130.891C344.504 122.345 335.323 115.816 323.184 111.264L322.482 113.136ZM357.833 162.3C357.833 174.937 354.873 186.052 348.98 195.678L350.686 196.722C356.793 186.748 359.833 175.263 359.833 162.3H357.833ZM348.98 195.678C343.088 205.301 334.64 212.775 323.599 218.099L324.467 219.901C335.825 214.424 344.577 206.699 350.686 196.722L348.98 195.678ZM323.592 218.102C312.758 223.421 299.816 226.1 284.733 226.1V228.1C300.05 228.1 313.307 225.379 324.473 219.898L323.592 218.102ZM284.733 226.1C258.886 226.1 238.741 219.937 224.175 207.733L222.891 209.267C237.925 221.863 258.58 228.1 284.733 228.1V226.1ZM224.175 207.733C209.671 195.582 202.13 176.506 201.733 150.285L199.733 150.315C200.136 176.894 207.794 196.618 222.891 209.267L224.175 207.733ZM200.733 151.3H265.533V149.3H200.733V151.3ZM264.534 150.245C264.129 157.537 265.127 163.281 267.687 167.334L269.378 166.266C267.138 162.719 266.136 157.463 266.531 150.355L264.534 150.245ZM267.722 167.385C270.578 171.34 275.348 173.2 281.733 173.2V171.2C275.717 171.2 271.688 169.46 269.344 166.215L267.722 167.385ZM281.733 173.2C285.606 173.2 288.875 171.787 291.468 168.978L289.998 167.622C287.791 170.013 285.059 171.2 281.733 171.2V173.2ZM291.492 168.951C294.076 165.936 295.333 162.09 295.333 157.5H293.333C293.333 161.71 292.189 165.064 289.974 167.649L291.492 168.951ZM295.333 157.5C295.333 151.649 293.331 147.12 289.226 144.095L288.04 145.705C291.534 148.28 293.333 152.151 293.333 157.5H295.333ZM289.273 144.132C285.392 140.898 278.887 139.4 270.033 139.4V141.4C278.778 141.4 284.674 142.902 287.993 145.668L289.273 144.132ZM270.033 139.4H258.933V141.4H270.033V139.4ZM259.933 140.4V86.7H257.933V140.4H259.933ZM258.933 87.7H269.733V85.7H258.933V87.7ZM269.674 87.6983C276.586 88.1049 281.978 86.9527 285.655 84.0331C289.368 81.0842 291.133 76.4951 291.133 70.5H289.133C289.133 76.1049 287.497 80.0158 284.411 82.4669C281.287 84.9473 276.479 86.0951 269.792 85.7017L269.674 87.6983ZM291.133 70.5C291.133 65.3793 290.01 61.386 287.57 58.7243L286.096 60.0757C288.056 62.214 289.133 65.6207 289.133 70.5H291.133ZM287.601 58.7598C285.406 56.1255 282.521 54.8 279.033 54.8V56.8C281.944 56.8 284.26 57.8745 286.065 60.0402L287.601 58.7598ZM279.033 54.8C274.991 54.8 271.885 56.526 269.849 59.9375C267.862 63.2673 266.933 68.1332 266.933 74.4H268.933C268.933 68.2668 269.854 63.8327 271.567 60.9624C273.231 58.174 275.674 56.8 279.033 56.8V54.8ZM267.933 73.4H203.133V75.4H267.933V73.4ZM204.132 74.4252C204.728 50.8058 211.568 32.89 224.523 20.5234L223.142 19.0766C209.698 31.91 202.738 50.3941 202.133 74.3748L204.132 74.4252ZM224.518 20.5285C237.678 8.15364 256.302 1.89999 280.533 1.89999V-0.100014C255.963 -0.100014 236.787 6.24635 223.148 19.0715L224.518 20.5285Z" fill="#44A1E7" mask="url(#path-1-outside-1_150_415)"/>
</g>
</svg>
