<svg width="376" height="220" viewBox="0 0 376 220" fill="none" xmlns="http://www.w3.org/2000/svg">
<g opacity="0.8">
<mask id="path-1-outside-1_150_294" maskUnits="userSpaceOnUse" x="-1" y="-1" width="378" height="222" fill="black">
<rect fill="white" x="-1" y="-1" width="378" height="222"/>
<path d="M22.8 189.7C8 170.1 0.6 143.9 0.6 111.1C0.6 78.3 8 52.2 22.8 32.8C37.6 13.4 60.2 3.7 90.6 3.7C121 3.7 143.6 13.5 158.4 33.1C173.2 52.5 180.6 78.5 180.6 111.1C180.6 143.9 173.2 170.1 158.4 189.7C143.6 209.1 121 218.8 90.6 218.8C60.2 218.8 37.6 209.1 22.8 189.7ZM110.1 144.1C113.3 136.3 114.9 125.3 114.9 111.1C114.9 96.9 113.3 86 110.1 78.4C106.9 70.6 100.4 66.7 90.6 66.7C80.6 66.7 74 70.6 70.8 78.4C67.6 86 66 96.9 66 111.1C66 125.3 67.6 136.3 70.8 144.1C74 151.9 80.6 155.8 90.6 155.8C100.4 155.8 106.9 151.9 110.1 144.1ZM364.833 59.2H277.833V84.4C281.633 81 286.533 78.3 292.533 76.3C298.733 74.3 305.633 73.3 313.233 73.3C326.833 73.3 338.333 76.5 347.733 82.9C357.133 89.3 364.133 97.9 368.733 108.7C373.333 119.3 375.633 131.1 375.633 144.1C375.633 168.1 368.833 186.8 355.233 200.2C341.833 213.4 323.333 220 299.733 220C282.533 220 267.633 217 255.033 211C242.633 205 233.133 196.7 226.533 186.1C220.133 175.5 217.133 163.4 217.533 149.8H282.333C282.333 153 283.433 156 285.633 158.8C287.833 161.6 291.433 163 296.433 163C301.433 163 305.133 161.2 307.533 157.6C309.933 154 311.133 149.1 311.133 142.9C311.133 137.1 309.733 132.7 306.933 129.7C304.333 126.7 300.533 125.2 295.533 125.2C291.333 125.2 288.133 126.2 285.933 128.2C283.733 130.2 282.633 132.5 282.633 135.1H217.833V0.699998H364.833V59.2Z"/>
</mask>
<path d="M22.8 189.7L22.002 190.303L22.0049 190.307L22.8 189.7ZM22.8 32.8L23.5951 33.4065L22.8 32.8ZM158.4 33.1L157.602 33.7026L157.605 33.7065L158.4 33.1ZM158.4 189.7L159.195 190.307L159.198 190.303L158.4 189.7ZM110.1 78.4L109.175 78.7796L109.178 78.788L110.1 78.4ZM70.8 78.4L71.7217 78.7881L71.7252 78.7795L70.8 78.4ZM23.598 189.097C8.96692 169.721 1.6 143.755 1.6 111.1H-0.4C-0.4 144.045 7.03308 170.479 22.002 190.303L23.598 189.097ZM1.6 111.1C1.6 78.4443 8.96719 52.5809 23.5951 33.4065L22.0049 32.1935C7.03281 51.8191 -0.4 78.1557 -0.4 111.1H1.6ZM23.5951 33.4065C38.1598 14.315 60.427 4.7 90.6 4.7V2.7C59.973 2.7 37.0403 12.485 22.0049 32.1935L23.5951 33.4065ZM90.6 4.7C120.769 4.7 143.036 14.4123 157.602 33.7026L159.198 32.4974C144.164 12.5876 121.231 2.7 90.6 2.7V4.7ZM157.605 33.7065C172.234 52.8819 179.6 78.6459 179.6 111.1H181.6C181.6 78.354 174.166 52.1181 159.195 32.4935L157.605 33.7065ZM179.6 111.1C179.6 143.755 172.233 169.721 157.602 189.097L159.198 190.303C174.167 170.479 181.6 144.045 181.6 111.1H179.6ZM157.605 189.093C143.04 208.185 120.773 217.8 90.6 217.8V219.8C121.227 219.8 144.16 210.015 159.195 190.307L157.605 189.093ZM90.6 217.8C60.427 217.8 38.1598 208.185 23.5951 189.093L22.0049 190.307C37.0403 210.015 59.973 219.8 90.6 219.8V217.8ZM111.025 144.48C114.297 136.504 115.9 125.353 115.9 111.1H113.9C113.9 125.247 112.303 136.096 109.175 143.72L111.025 144.48ZM115.9 111.1C115.9 96.8491 114.298 85.7929 111.022 78.0119L109.178 78.788C112.302 86.207 113.9 96.9509 113.9 111.1H115.9ZM111.025 78.0204C109.353 73.9445 106.795 70.8408 103.34 68.7675C99.8948 66.7007 95.6292 65.7 90.6 65.7V67.7C95.3708 67.7 99.2552 68.6493 102.311 70.4825C105.355 72.3092 107.647 75.0554 109.175 78.7795L111.025 78.0204ZM90.6 65.7C85.4742 65.7 81.1355 66.6993 77.6413 68.7641C74.1349 70.836 71.5488 73.9401 69.8748 78.0204L71.7252 78.7795C73.2512 75.0598 75.5651 72.314 78.6587 70.4859C81.7645 68.6507 85.7258 67.7 90.6 67.7V65.7ZM69.8784 78.0119C66.6021 85.7929 65 96.8491 65 111.1H67C67 96.9509 68.5978 86.207 71.7216 78.788L69.8784 78.0119ZM65 111.1C65 125.353 66.6028 136.504 69.8748 144.48L71.7252 143.72C68.5972 136.096 67 125.247 67 111.1H65ZM69.8748 144.48C71.5488 148.56 74.1349 151.664 77.6413 153.736C81.1355 155.801 85.4742 156.8 90.6 156.8V154.8C85.7258 154.8 81.7645 153.849 78.6587 152.014C75.5651 150.186 73.2512 147.44 71.7252 143.72L69.8748 144.48ZM90.6 156.8C95.6292 156.8 99.8948 155.799 103.34 153.732C106.795 151.659 109.353 148.555 111.025 144.48L109.175 143.72C107.647 147.445 105.355 150.191 102.311 152.018C99.2552 153.851 95.3708 154.8 90.6 154.8V156.8ZM364.833 59.2V60.2H365.833V59.2H364.833ZM277.833 59.2V58.2H276.833V59.2H277.833ZM277.833 84.4H276.833V86.6366L278.5 85.1452L277.833 84.4ZM292.533 76.3L292.226 75.3482L292.217 75.3513L292.533 76.3ZM368.733 108.7L367.813 109.092L367.815 109.098L368.733 108.7ZM355.233 200.2L355.935 200.912L355.935 200.912L355.233 200.2ZM255.033 211L254.597 211.9L254.603 211.903L255.033 211ZM226.533 186.1L225.677 186.617L225.684 186.629L226.533 186.1ZM217.533 149.8V148.8H216.562L216.533 149.771L217.533 149.8ZM282.333 149.8H283.333V148.8H282.333V149.8ZM307.533 157.6L306.701 157.045L307.533 157.6ZM306.933 129.7L306.177 130.355L306.189 130.369L306.202 130.382L306.933 129.7ZM285.933 128.2L285.26 127.46L285.933 128.2ZM282.633 135.1V136.1H283.633V135.1H282.633ZM217.833 135.1H216.833V136.1H217.833V135.1ZM217.833 0.699997V-0.300003H216.833V0.699997H217.833ZM364.833 0.699997H365.833V-0.300003H364.833V0.699997ZM364.833 58.2H277.833V60.2H364.833V58.2ZM276.833 59.2V84.4H278.833V59.2H276.833ZM278.5 85.1452C282.177 81.8553 286.948 79.2156 292.849 77.2487L292.217 75.3513C286.117 77.3844 281.089 80.1447 277.166 83.6548L278.5 85.1452ZM292.84 77.2517C298.926 75.2885 305.72 74.3 313.233 74.3V72.3C305.546 72.3 298.54 73.3115 292.226 75.3483L292.84 77.2517ZM313.233 74.3C326.672 74.3 337.966 77.4602 347.17 83.7266L348.296 82.0734C338.699 75.5398 326.994 72.3 313.233 72.3V74.3ZM347.17 83.7266C356.406 90.0152 363.285 98.462 367.813 109.092L369.653 108.308C364.98 97.338 357.859 88.5847 348.296 82.0734L347.17 83.7266ZM367.815 109.098C372.355 119.558 374.633 131.22 374.633 144.1H376.633C376.633 130.98 374.311 119.042 369.65 108.302L367.815 109.098ZM374.633 144.1C374.633 167.905 367.894 186.321 354.531 199.488L355.935 200.912C369.772 187.279 376.633 168.295 376.633 144.1H374.633ZM354.531 199.488C341.363 212.459 323.141 219 299.733 219V221C323.525 221 342.303 214.341 355.935 200.912L354.531 199.488ZM299.733 219C282.648 219 267.901 216.02 255.463 210.097L254.603 211.903C267.365 217.98 282.418 221 299.733 221V219ZM255.468 210.1C243.22 204.173 233.872 195.995 227.382 185.571L225.684 186.629C232.394 197.405 242.045 205.827 254.597 211.9L255.468 210.1ZM227.389 185.583C221.098 175.164 218.137 163.257 218.532 149.829L216.533 149.771C216.128 163.543 219.168 175.836 225.677 186.617L227.389 185.583ZM217.533 150.8H282.333V148.8H217.533V150.8ZM281.333 149.8C281.333 153.249 282.525 156.463 284.846 159.418L286.419 158.182C284.341 155.537 283.333 152.751 283.333 149.8H281.333ZM284.846 159.418C287.304 162.546 291.257 164 296.433 164V162C291.609 162 288.361 160.654 286.419 158.182L284.846 159.418ZM296.433 164C301.707 164 305.748 162.08 308.365 158.155L306.701 157.045C304.517 160.32 301.159 162 296.433 162V164ZM308.365 158.155C310.912 154.334 312.133 149.216 312.133 142.9H310.133C310.133 148.984 308.953 153.666 306.701 157.045L308.365 158.155ZM312.133 142.9C312.133 136.952 310.697 132.267 307.664 129.018L306.202 130.382C308.769 133.133 310.133 137.248 310.133 142.9H312.133ZM307.689 129.045C304.851 125.771 300.742 124.2 295.533 124.2V126.2C300.324 126.2 303.814 127.629 306.177 130.355L307.689 129.045ZM295.533 124.2C291.186 124.2 287.708 125.235 285.26 127.46L286.605 128.94C288.558 127.165 291.479 126.2 295.533 126.2V124.2ZM285.26 127.46C282.885 129.62 281.633 132.177 281.633 135.1H283.633C283.633 132.823 284.581 130.78 286.605 128.94L285.26 127.46ZM282.633 134.1H217.833V136.1H282.633V134.1ZM218.833 135.1V0.699997H216.833V135.1H218.833ZM217.833 1.7H364.833V-0.300003H217.833V1.7ZM363.833 0.699997V59.2H365.833V0.699997H363.833Z" fill="#44A1E7" mask="url(#path-1-outside-1_150_294)"/>
</g>
</svg>
