<svg width="367" height="227" viewBox="0 0 367 227" fill="none" xmlns="http://www.w3.org/2000/svg">
<g opacity="0.8">
<mask id="path-1-outside-1_150_548" maskUnits="userSpaceOnUse" x="-1" y="-1" width="369" height="229" fill="black">
<rect fill="white" x="-1" y="-1" width="369" height="229"/>
<path d="M22.8 193.7C8 174.1 0.6 147.9 0.6 115.1C0.6 82.3 8 56.2 22.8 36.8C37.6 17.4 60.2 7.7 90.6 7.7C121 7.7 143.6 17.5 158.4 37.1C173.2 56.5 180.6 82.5 180.6 115.1C180.6 147.9 173.2 174.1 158.4 193.7C143.6 213.1 121 222.8 90.6 222.8C60.2 222.8 37.6 213.1 22.8 193.7ZM110.1 148.1C113.3 140.3 114.9 129.3 114.9 115.1C114.9 100.9 113.3 90 110.1 82.4C106.9 74.6 100.4 70.7 90.6 70.7C80.6 70.7 74 74.6 70.8 82.4C67.6 90 66 100.9 66 115.1C66 129.3 67.6 140.3 70.8 148.1C74 155.9 80.6 159.8 90.6 159.8C100.4 159.8 106.9 155.9 110.1 148.1ZM299.133 71.3C297.933 65.3 296.133 60.9 293.733 58.1C291.533 55.3 288.033 53.9 283.233 53.9C275.633 53.9 270.533 57.8 267.933 65.6C265.533 73.2 264.333 85.1 264.333 101.3C267.933 95.7 273.133 91.3 279.933 88.1C286.733 84.9 294.433 83.3 303.033 83.3C322.233 83.3 337.533 89.2 348.933 101C360.533 112.8 366.333 129.9 366.333 152.3C366.333 167.3 363.133 180.4 356.733 191.6C350.533 202.6 341.633 211.1 330.033 217.1C318.433 223.1 304.733 226.1 288.933 226.1C257.533 226.1 235.733 216.5 223.533 197.3C211.333 177.9 205.233 150.8 205.233 116C205.233 88.8 208.033 66.8 213.633 50C219.233 33.2 228.033 20.8 240.033 12.8C252.233 4.79999 268.033 0.799995 287.433 0.799995C311.233 0.799995 329.133 7.59999 341.133 21.2C353.333 34.8 360.033 51.5 361.233 71.3H299.133ZM268.833 151.4C268.833 157.4 270.333 161.9 273.333 164.9C276.533 167.7 280.933 169.1 286.533 169.1C292.133 169.1 296.433 167.7 299.433 164.9C302.633 161.9 304.233 157.4 304.233 151.4C304.233 146 302.633 141.8 299.433 138.8C296.233 135.8 291.933 134.3 286.533 134.3C281.133 134.3 276.833 135.8 273.633 138.8C270.433 141.8 268.833 146 268.833 151.4Z"/>
</mask>
<path d="M22.8 193.7L22.002 194.303L22.0049 194.307L22.8 193.7ZM22.8 36.8L23.5951 37.4065L22.8 36.8ZM158.4 37.1L157.602 37.7026L157.605 37.7065L158.4 37.1ZM158.4 193.7L159.195 194.307L159.198 194.303L158.4 193.7ZM110.1 82.4L109.175 82.7796L109.178 82.788L110.1 82.4ZM70.8 82.4L71.7217 82.7881L71.7252 82.7795L70.8 82.4ZM23.598 193.097C8.96692 173.721 1.6 147.755 1.6 115.1H-0.4C-0.4 148.045 7.03308 174.479 22.002 194.303L23.598 193.097ZM1.6 115.1C1.6 82.4443 8.96719 56.5809 23.5951 37.4065L22.0049 36.1935C7.03281 55.8191 -0.4 82.1557 -0.4 115.1H1.6ZM23.5951 37.4065C38.1598 18.315 60.427 8.7 90.6 8.7V6.7C59.973 6.7 37.0403 16.485 22.0049 36.1935L23.5951 37.4065ZM90.6 8.7C120.769 8.7 143.036 18.4123 157.602 37.7026L159.198 36.4974C144.164 16.5876 121.231 6.7 90.6 6.7V8.7ZM157.605 37.7065C172.234 56.8819 179.6 82.6459 179.6 115.1H181.6C181.6 82.354 174.166 56.1181 159.195 36.4935L157.605 37.7065ZM179.6 115.1C179.6 147.755 172.233 173.721 157.602 193.097L159.198 194.303C174.167 174.479 181.6 148.045 181.6 115.1H179.6ZM157.605 193.093C143.04 212.185 120.773 221.8 90.6 221.8V223.8C121.227 223.8 144.16 214.015 159.195 194.307L157.605 193.093ZM90.6 221.8C60.427 221.8 38.1598 212.185 23.5951 193.093L22.0049 194.307C37.0403 214.015 59.973 223.8 90.6 223.8V221.8ZM111.025 148.48C114.297 140.504 115.9 129.353 115.9 115.1H113.9C113.9 129.247 112.303 140.096 109.175 147.72L111.025 148.48ZM115.9 115.1C115.9 100.849 114.298 89.7929 111.022 82.0119L109.178 82.788C112.302 90.207 113.9 100.951 113.9 115.1H115.9ZM111.025 82.0204C109.353 77.9445 106.795 74.8408 103.34 72.7675C99.8948 70.7007 95.6292 69.7 90.6 69.7V71.7C95.3708 71.7 99.2552 72.6493 102.311 74.4825C105.355 76.3092 107.647 79.0554 109.175 82.7795L111.025 82.0204ZM90.6 69.7C85.4742 69.7 81.1355 70.6993 77.6413 72.7641C74.1349 74.836 71.5488 77.9401 69.8748 82.0204L71.7252 82.7795C73.2512 79.0598 75.5651 76.314 78.6587 74.4859C81.7645 72.6507 85.7258 71.7 90.6 71.7V69.7ZM69.8784 82.0119C66.6021 89.7929 65 100.849 65 115.1H67C67 100.951 68.5978 90.207 71.7216 82.788L69.8784 82.0119ZM65 115.1C65 129.353 66.6028 140.504 69.8748 148.48L71.7252 147.72C68.5972 140.096 67 129.247 67 115.1H65ZM69.8748 148.48C71.5488 152.56 74.1349 155.664 77.6413 157.736C81.1355 159.801 85.4742 160.8 90.6 160.8V158.8C85.7258 158.8 81.7645 157.849 78.6587 156.014C75.5651 154.186 73.2512 151.44 71.7252 147.72L69.8748 148.48ZM90.6 160.8C95.6292 160.8 99.8948 159.799 103.34 157.732C106.795 155.659 109.353 152.555 111.025 148.48L109.175 147.72C107.647 151.445 105.355 154.191 102.311 156.018C99.2552 157.851 95.3708 158.8 90.6 158.8V160.8ZM299.133 71.3L298.152 71.4961L298.313 72.3H299.133V71.3ZM293.733 58.1L292.947 58.7178L292.96 58.7346L292.974 58.7508L293.733 58.1ZM267.933 65.6L266.984 65.2838L266.982 65.2913L266.979 65.2989L267.933 65.6ZM264.333 101.3H263.333V104.705L265.174 101.841L264.333 101.3ZM279.933 88.1L280.359 89.0048L279.933 88.1ZM348.933 101L348.214 101.695L348.22 101.701L348.933 101ZM356.733 191.6L355.865 191.104L355.862 191.109L356.733 191.6ZM330.033 217.1L329.573 216.212L330.033 217.1ZM223.533 197.3L222.686 197.832L222.689 197.836L223.533 197.3ZM213.633 50L212.684 49.6838L213.633 50ZM240.033 12.8L239.484 11.9637L239.478 11.9679L240.033 12.8ZM341.133 21.2L340.383 21.8616L340.388 21.8677L341.133 21.2ZM361.233 71.3V72.3H362.295L362.231 71.2395L361.233 71.3ZM273.333 164.9L272.626 165.607L272.649 165.631L272.674 165.653L273.333 164.9ZM299.433 164.9L300.115 165.631L300.117 165.63L299.433 164.9ZM299.433 138.8L298.749 139.53L299.433 138.8ZM273.633 138.8L274.317 139.53L273.633 138.8ZM300.113 71.1039C298.899 65.034 297.054 60.4386 294.492 57.4492L292.974 58.7508C295.211 61.3614 296.966 65.5659 298.152 71.4961L300.113 71.1039ZM294.519 57.4822C292.069 54.3633 288.225 52.9 283.233 52.9V54.9C287.84 54.9 290.997 56.2366 292.947 58.7178L294.519 57.4822ZM283.233 52.9C279.255 52.9 275.855 53.9239 273.1 56.0306C270.352 58.1323 268.33 61.2469 266.984 65.2838L268.882 65.9162C270.136 62.1531 271.964 59.4177 274.315 57.6194C276.66 55.826 279.611 54.9 283.233 54.9V52.9ZM266.979 65.2989C264.531 73.0522 263.333 85.0806 263.333 101.3H265.333C265.333 85.1194 266.535 73.3478 268.886 65.9011L266.979 65.2989ZM265.174 101.841C268.66 96.4184 273.706 92.1355 280.359 89.0048L279.507 87.1952C272.56 90.4645 267.206 94.9816 263.492 100.759L265.174 101.841ZM280.359 89.0048C287.007 85.8759 294.559 84.3 303.033 84.3V82.3C294.307 82.3 286.458 83.924 279.507 87.1952L280.359 89.0048ZM303.033 84.3C322.012 84.3 337.034 90.1231 348.214 101.695L349.652 100.305C338.031 88.2769 322.454 82.3 303.033 82.3V84.3ZM348.22 101.701C359.579 113.256 365.333 130.067 365.333 152.3H367.333C367.333 129.733 361.487 112.344 349.646 100.299L348.22 101.701ZM365.333 152.3C365.333 167.155 362.165 180.078 355.865 191.104L357.601 192.096C364.101 180.722 367.333 167.445 367.333 152.3H365.333ZM355.862 191.109C349.761 201.933 341.007 210.298 329.573 216.212L330.492 217.988C342.259 211.902 351.305 203.267 357.604 192.091L355.862 191.109ZM329.573 216.212C318.142 222.124 304.606 225.1 288.933 225.1V227.1C304.859 227.1 318.723 224.076 330.492 217.988L329.573 216.212ZM288.933 225.1C257.731 225.1 236.328 215.572 224.377 196.764L222.689 197.836C235.138 217.428 257.334 227.1 288.933 227.1V225.1ZM224.379 196.768C212.319 177.59 206.233 150.702 206.233 116H204.233C204.233 150.898 210.347 178.21 222.686 197.832L224.379 196.768ZM206.233 116C206.233 88.8563 209.029 66.975 214.581 50.3162L212.684 49.6838C207.037 66.625 204.233 88.7437 204.233 116H206.233ZM214.581 50.3162C220.128 33.6779 228.812 21.4827 240.588 13.632L239.478 11.9679C227.254 20.1173 218.338 32.7221 212.684 49.6838L214.581 50.3162ZM240.581 13.6362C252.573 5.77302 268.165 1.8 287.433 1.8V-0.200005C267.901 -0.200005 251.893 3.82697 239.484 11.9637L240.581 13.6362ZM287.433 1.8C311.041 1.8 328.628 8.53896 340.383 21.8616L341.883 20.5384C329.638 6.66102 311.425 -0.200005 287.433 -0.200005V1.8ZM340.388 21.8677C352.425 35.285 359.047 51.7651 360.235 71.3605L362.231 71.2395C361.019 51.2348 354.241 34.315 341.877 20.5322L340.388 21.8677ZM361.233 70.3H299.133V72.3H361.233V70.3ZM267.833 151.4C267.833 157.554 269.372 162.353 272.626 165.607L274.04 164.193C271.294 161.447 269.833 157.246 269.833 151.4H267.833ZM272.674 165.653C276.108 168.657 280.769 170.1 286.533 170.1V168.1C281.097 168.1 276.958 166.743 273.991 164.147L272.674 165.653ZM286.533 170.1C292.292 170.1 296.871 168.659 300.115 165.631L298.75 164.169C295.994 166.741 291.973 168.1 286.533 168.1V170.1ZM300.117 165.63C303.584 162.379 305.233 157.571 305.233 151.4H303.233C303.233 157.229 301.682 161.421 298.749 164.17L300.117 165.63ZM305.233 151.4C305.233 145.792 303.563 141.302 300.117 138.07L298.749 139.53C301.702 142.298 303.233 146.208 303.233 151.4H305.233ZM300.117 138.07C296.691 134.859 292.125 133.3 286.533 133.3V135.3C291.74 135.3 295.775 136.741 298.749 139.53L300.117 138.07ZM286.533 133.3C280.94 133.3 276.375 134.859 272.949 138.07L274.317 139.53C277.291 136.741 281.325 135.3 286.533 135.3V133.3ZM272.949 138.07C269.502 141.302 267.833 145.792 267.833 151.4H269.833C269.833 146.208 271.363 142.298 274.317 139.53L272.949 138.07Z" fill="#44A1E7" mask="url(#path-1-outside-1_150_548)"/>
</g>
</svg>
