<svg width="24" height="24" viewBox="0 0 24 24" fill="none" xmlns="http://www.w3.org/2000/svg">
<g clip-path="url(#clip0_1252_107)">
<path d="M17.5034 0H6.49657C2.9143 0 0 2.9143 0 6.49657V17.5036C0 21.0857 2.9143 24 6.49657 24H17.5036C21.0857 24 24 21.0857 24 17.5036V6.49657C24 2.9143 21.0857 0 17.5034 0ZM22.593 17.5036C22.593 20.3098 20.3098 22.593 17.5034 22.593H6.49657C3.69012 22.593 1.40698 20.3098 1.40698 17.5036V6.49657C1.40698 3.69012 3.69012 1.40698 6.49657 1.40698H17.5036C20.3098 1.40698 22.593 3.69012 22.593 6.49657V17.5036Z" fill="white"/>
<path d="M11.9998 5.43774C8.38128 5.43774 5.4375 8.38153 5.4375 12C5.4375 15.6186 8.38128 18.5624 11.9998 18.5624C15.6183 18.5624 18.5621 15.6186 18.5621 12C18.5621 8.38153 15.6183 5.43774 11.9998 5.43774ZM11.9998 17.1554C9.15728 17.1554 6.84448 14.8428 6.84448 12C6.84448 9.15752 9.15728 6.84472 11.9998 6.84472C14.8425 6.84472 17.1551 9.15752 17.1551 12C17.1551 14.8428 14.8425 17.1554 11.9998 17.1554Z" fill="white"/>
<path d="M18.7194 3.10718C17.65 3.10718 16.7803 3.97711 16.7803 5.04626C16.7803 6.1156 17.65 6.98553 18.7194 6.98553C19.7887 6.98553 20.6586 6.1156 20.6586 5.04626C20.6586 3.97693 19.7887 3.10718 18.7194 3.10718ZM18.7194 5.57836C18.426 5.57836 18.1873 5.3396 18.1873 5.04626C18.1873 4.75274 18.426 4.51416 18.7194 4.51416C19.0129 4.51416 19.2516 4.75274 19.2516 5.04626C19.2516 5.3396 19.0129 5.57836 18.7194 5.57836Z" fill="white"/>
</g>
<defs>
<clipPath id="clip0_1252_107">
<rect width="24" height="24" fill="white"/>
</clipPath>
</defs>
</svg>
